<mxfile host="app.diagrams.net" modified="2024-06-11T11:53:09.248Z" agent="Mozilla/5.0 (Windows NT 10.0; Win64; x64) AppleWebKit/537.36 (KHTML, like Gecko) Chrome/125.0.0.0 Safari/537.36" etag="kmm1jDO4gbvR8r5vcak0" version="24.5.2" type="github" pages="2">
  <diagram id="C5RBs43oDa-KdzZeNtuy" name="Communication">
    <mxGraphModel dx="1434" dy="746" grid="1" gridSize="10" guides="1" tooltips="1" connect="1" arrows="1" fold="1" page="1" pageScale="1" pageWidth="827" pageHeight="1169" math="0" shadow="0">
      <root>
        <mxCell id="WIyWlLk6GJQsqaUBKTNV-0" />
        <mxCell id="WIyWlLk6GJQsqaUBKTNV-1" parent="WIyWlLk6GJQsqaUBKTNV-0" />
        <mxCell id="ImjPyIsNFRjCaC-ZB6Vt-3" style="edgeStyle=orthogonalEdgeStyle;rounded=0;orthogonalLoop=1;jettySize=auto;html=1;exitX=1;exitY=0.5;exitDx=0;exitDy=0;entryX=0;entryY=0.5;entryDx=0;entryDy=0;" edge="1" parent="WIyWlLk6GJQsqaUBKTNV-1" source="WIyWlLk6GJQsqaUBKTNV-12" target="ImjPyIsNFRjCaC-ZB6Vt-1">
          <mxGeometry relative="1" as="geometry" />
        </mxCell>
        <mxCell id="WIyWlLk6GJQsqaUBKTNV-12" value="topic" style="rounded=1;whiteSpace=wrap;html=1;fontSize=12;glass=0;strokeWidth=1;shadow=0;" parent="WIyWlLk6GJQsqaUBKTNV-1" vertex="1">
          <mxGeometry x="330" y="290" width="120" height="40" as="geometry" />
        </mxCell>
        <mxCell id="ImjPyIsNFRjCaC-ZB6Vt-2" style="edgeStyle=orthogonalEdgeStyle;rounded=0;orthogonalLoop=1;jettySize=auto;html=1;exitX=1;exitY=0.5;exitDx=0;exitDy=0;entryX=0;entryY=0.5;entryDx=0;entryDy=0;" edge="1" parent="WIyWlLk6GJQsqaUBKTNV-1" source="ImjPyIsNFRjCaC-ZB6Vt-0" target="WIyWlLk6GJQsqaUBKTNV-12">
          <mxGeometry relative="1" as="geometry" />
        </mxCell>
        <mxCell id="ImjPyIsNFRjCaC-ZB6Vt-0" value="node1" style="ellipse;whiteSpace=wrap;html=1;" vertex="1" parent="WIyWlLk6GJQsqaUBKTNV-1">
          <mxGeometry x="70" y="280" width="120" height="80" as="geometry" />
        </mxCell>
        <mxCell id="ImjPyIsNFRjCaC-ZB6Vt-1" value="node2" style="ellipse;whiteSpace=wrap;html=1;" vertex="1" parent="WIyWlLk6GJQsqaUBKTNV-1">
          <mxGeometry x="590" y="270" width="120" height="80" as="geometry" />
        </mxCell>
      </root>
    </mxGraphModel>
  </diagram>
  <diagram id="hV0zBgBV7XyVtqE_1kfV" name="Automation">
    <mxGraphModel dx="1687" dy="878" grid="1" gridSize="10" guides="1" tooltips="1" connect="1" arrows="1" fold="1" page="1" pageScale="1" pageWidth="850" pageHeight="1100" math="0" shadow="0">
      <root>
        <mxCell id="0" />
        <mxCell id="1" parent="0" />
        <mxCell id="V3ULolbk7AdaHCGcC3ym-4" style="edgeStyle=orthogonalEdgeStyle;rounded=0;orthogonalLoop=1;jettySize=auto;html=1;exitX=0.5;exitY=1;exitDx=0;exitDy=0;entryX=0.5;entryY=0;entryDx=0;entryDy=0;" edge="1" parent="1" source="V3ULolbk7AdaHCGcC3ym-1" target="V3ULolbk7AdaHCGcC3ym-3">
          <mxGeometry relative="1" as="geometry" />
        </mxCell>
        <mxCell id="V3ULolbk7AdaHCGcC3ym-1" value="Start" style="ellipse;whiteSpace=wrap;html=1;" vertex="1" parent="1">
          <mxGeometry x="360" y="140" width="120" height="80" as="geometry" />
        </mxCell>
        <mxCell id="V3ULolbk7AdaHCGcC3ym-2" value="End" style="ellipse;whiteSpace=wrap;html=1;" vertex="1" parent="1">
          <mxGeometry x="360" y="1060" width="120" height="80" as="geometry" />
        </mxCell>
        <mxCell id="V3ULolbk7AdaHCGcC3ym-6" style="edgeStyle=orthogonalEdgeStyle;rounded=0;orthogonalLoop=1;jettySize=auto;html=1;exitX=0.5;exitY=1;exitDx=0;exitDy=0;" edge="1" parent="1" source="V3ULolbk7AdaHCGcC3ym-3" target="V3ULolbk7AdaHCGcC3ym-5">
          <mxGeometry relative="1" as="geometry" />
        </mxCell>
        <mxCell id="V3ULolbk7AdaHCGcC3ym-3" value="Line Following from start to area3" style="rounded=0;whiteSpace=wrap;html=1;" vertex="1" parent="1">
          <mxGeometry x="360" y="270" width="120" height="60" as="geometry" />
        </mxCell>
        <mxCell id="V3ULolbk7AdaHCGcC3ym-8" style="edgeStyle=orthogonalEdgeStyle;rounded=0;orthogonalLoop=1;jettySize=auto;html=1;exitX=0.5;exitY=1;exitDx=0;exitDy=0;" edge="1" parent="1" source="V3ULolbk7AdaHCGcC3ym-5" target="V3ULolbk7AdaHCGcC3ym-7">
          <mxGeometry relative="1" as="geometry" />
        </mxCell>
        <mxCell id="V3ULolbk7AdaHCGcC3ym-5" value="Depth Camera and object detection" style="rounded=0;whiteSpace=wrap;html=1;" vertex="1" parent="1">
          <mxGeometry x="360" y="370" width="120" height="60" as="geometry" />
        </mxCell>
        <mxCell id="V3ULolbk7AdaHCGcC3ym-10" style="edgeStyle=orthogonalEdgeStyle;rounded=0;orthogonalLoop=1;jettySize=auto;html=1;exitX=0.5;exitY=1;exitDx=0;exitDy=0;entryX=0.5;entryY=0;entryDx=0;entryDy=0;" edge="1" parent="1" source="V3ULolbk7AdaHCGcC3ym-7" target="V3ULolbk7AdaHCGcC3ym-9">
          <mxGeometry relative="1" as="geometry" />
        </mxCell>
        <mxCell id="V3ULolbk7AdaHCGcC3ym-7" value="Find the path to correct ball" style="rounded=0;whiteSpace=wrap;html=1;" vertex="1" parent="1">
          <mxGeometry x="360" y="480" width="120" height="60" as="geometry" />
        </mxCell>
        <mxCell id="V3ULolbk7AdaHCGcC3ym-12" style="edgeStyle=orthogonalEdgeStyle;rounded=0;orthogonalLoop=1;jettySize=auto;html=1;exitX=0.5;exitY=1;exitDx=0;exitDy=0;entryX=0.5;entryY=0;entryDx=0;entryDy=0;" edge="1" parent="1" source="V3ULolbk7AdaHCGcC3ym-9" target="V3ULolbk7AdaHCGcC3ym-11">
          <mxGeometry relative="1" as="geometry" />
        </mxCell>
        <mxCell id="V3ULolbk7AdaHCGcC3ym-9" value="Pick up ball" style="rounded=0;whiteSpace=wrap;html=1;" vertex="1" parent="1">
          <mxGeometry x="360" y="580" width="120" height="60" as="geometry" />
        </mxCell>
        <mxCell id="V3ULolbk7AdaHCGcC3ym-14" style="edgeStyle=orthogonalEdgeStyle;rounded=0;orthogonalLoop=1;jettySize=auto;html=1;exitX=0.5;exitY=1;exitDx=0;exitDy=0;entryX=0.5;entryY=0;entryDx=0;entryDy=0;" edge="1" parent="1" source="V3ULolbk7AdaHCGcC3ym-11" target="V3ULolbk7AdaHCGcC3ym-13">
          <mxGeometry relative="1" as="geometry" />
        </mxCell>
        <mxCell id="V3ULolbk7AdaHCGcC3ym-11" value="Find the best silo to put in" style="rounded=0;whiteSpace=wrap;html=1;" vertex="1" parent="1">
          <mxGeometry x="360" y="670" width="120" height="60" as="geometry" />
        </mxCell>
        <mxCell id="V3ULolbk7AdaHCGcC3ym-16" style="edgeStyle=orthogonalEdgeStyle;rounded=0;orthogonalLoop=1;jettySize=auto;html=1;exitX=0.5;exitY=1;exitDx=0;exitDy=0;entryX=0.5;entryY=0;entryDx=0;entryDy=0;" edge="1" parent="1" source="V3ULolbk7AdaHCGcC3ym-13" target="V3ULolbk7AdaHCGcC3ym-15">
          <mxGeometry relative="1" as="geometry" />
        </mxCell>
        <mxCell id="V3ULolbk7AdaHCGcC3ym-13" value="Path to silo and put in ball" style="rounded=0;whiteSpace=wrap;html=1;" vertex="1" parent="1">
          <mxGeometry x="360" y="770" width="120" height="60" as="geometry" />
        </mxCell>
        <mxCell id="V3ULolbk7AdaHCGcC3ym-17" style="edgeStyle=orthogonalEdgeStyle;rounded=0;orthogonalLoop=1;jettySize=auto;html=1;exitX=1;exitY=0.5;exitDx=0;exitDy=0;" edge="1" parent="1" source="V3ULolbk7AdaHCGcC3ym-15">
          <mxGeometry relative="1" as="geometry">
            <mxPoint x="420" y="340" as="targetPoint" />
            <Array as="points">
              <mxPoint x="590" y="930" />
              <mxPoint x="590" y="340" />
            </Array>
          </mxGeometry>
        </mxCell>
        <mxCell id="V3ULolbk7AdaHCGcC3ym-20" style="edgeStyle=orthogonalEdgeStyle;rounded=0;orthogonalLoop=1;jettySize=auto;html=1;exitX=0.5;exitY=1;exitDx=0;exitDy=0;entryX=0.5;entryY=0;entryDx=0;entryDy=0;" edge="1" parent="1" source="V3ULolbk7AdaHCGcC3ym-15" target="V3ULolbk7AdaHCGcC3ym-2">
          <mxGeometry relative="1" as="geometry" />
        </mxCell>
        <mxCell id="V3ULolbk7AdaHCGcC3ym-15" value="If game not end and time not up" style="rhombus;whiteSpace=wrap;html=1;" vertex="1" parent="1">
          <mxGeometry x="305" y="870" width="230" height="120" as="geometry" />
        </mxCell>
        <mxCell id="V3ULolbk7AdaHCGcC3ym-18" value="Yes" style="text;html=1;align=center;verticalAlign=middle;resizable=0;points=[];autosize=1;strokeColor=none;fillColor=none;" vertex="1" parent="1">
          <mxGeometry x="535" y="890" width="40" height="30" as="geometry" />
        </mxCell>
        <mxCell id="V3ULolbk7AdaHCGcC3ym-19" value="No" style="text;html=1;align=center;verticalAlign=middle;resizable=0;points=[];autosize=1;strokeColor=none;fillColor=none;" vertex="1" parent="1">
          <mxGeometry x="430" y="988" width="40" height="30" as="geometry" />
        </mxCell>
      </root>
    </mxGraphModel>
  </diagram>
</mxfile>
